<mxfile host="app.diagrams.net" modified="2020-04-20T19:38:31.445Z" agent="5.0 (Windows NT 10.0; Win64; x64) AppleWebKit/537.36 (KHTML, like Gecko) Chrome/80.0.3987.163 Safari/537.36" etag="YbMk8XmVP1eFbDoVUWom" version="12.9.14" type="github">
  <diagram id="C5RBs43oDa-KdzZeNtuy" name="Page-1">
    <mxGraphModel dx="1182" dy="756" grid="1" gridSize="10" guides="1" tooltips="1" connect="1" arrows="1" fold="1" page="1" pageScale="1" pageWidth="827" pageHeight="1169" math="0" shadow="0">
      <root>
        <mxCell id="WIyWlLk6GJQsqaUBKTNV-0" />
        <mxCell id="WIyWlLk6GJQsqaUBKTNV-1" parent="WIyWlLk6GJQsqaUBKTNV-0" />
        <mxCell id="qGvon2mAorv6Pj_mQ5Kc-0" value="User" style="rounded=0;whiteSpace=wrap;html=1;" vertex="1" parent="WIyWlLk6GJQsqaUBKTNV-1">
          <mxGeometry x="80" y="200" width="120" height="60" as="geometry" />
        </mxCell>
        <mxCell id="qGvon2mAorv6Pj_mQ5Kc-1" value="List" style="rounded=0;whiteSpace=wrap;html=1;" vertex="1" parent="WIyWlLk6GJQsqaUBKTNV-1">
          <mxGeometry x="340" y="200" width="120" height="60" as="geometry" />
        </mxCell>
        <mxCell id="qGvon2mAorv6Pj_mQ5Kc-2" value="Note" style="rounded=0;whiteSpace=wrap;html=1;" vertex="1" parent="WIyWlLk6GJQsqaUBKTNV-1">
          <mxGeometry x="640" y="200" width="120" height="60" as="geometry" />
        </mxCell>
        <mxCell id="qGvon2mAorv6Pj_mQ5Kc-4" value="" style="rounded=0;orthogonalLoop=1;jettySize=auto;html=1;shape=link;" edge="1" parent="WIyWlLk6GJQsqaUBKTNV-1" source="qGvon2mAorv6Pj_mQ5Kc-3" target="qGvon2mAorv6Pj_mQ5Kc-0">
          <mxGeometry relative="1" as="geometry" />
        </mxCell>
        <mxCell id="qGvon2mAorv6Pj_mQ5Kc-3" value="&lt;u&gt;UserID&lt;/u&gt;" style="ellipse;whiteSpace=wrap;html=1;" vertex="1" parent="WIyWlLk6GJQsqaUBKTNV-1">
          <mxGeometry x="30" y="110" width="90" height="50" as="geometry" />
        </mxCell>
        <mxCell id="qGvon2mAorv6Pj_mQ5Kc-5" value="" style="rounded=0;orthogonalLoop=1;jettySize=auto;html=1;shape=link;entryX=0.25;entryY=1;entryDx=0;entryDy=0;" edge="1" parent="WIyWlLk6GJQsqaUBKTNV-1" source="qGvon2mAorv6Pj_mQ5Kc-6" target="qGvon2mAorv6Pj_mQ5Kc-0">
          <mxGeometry relative="1" as="geometry">
            <mxPoint x="119.47368421052624" y="440" as="targetPoint" />
          </mxGeometry>
        </mxCell>
        <mxCell id="qGvon2mAorv6Pj_mQ5Kc-6" value="password" style="ellipse;whiteSpace=wrap;html=1;" vertex="1" parent="WIyWlLk6GJQsqaUBKTNV-1">
          <mxGeometry x="30" y="350" width="90" height="50" as="geometry" />
        </mxCell>
        <mxCell id="qGvon2mAorv6Pj_mQ5Kc-7" value="" style="rounded=0;orthogonalLoop=1;jettySize=auto;html=1;shape=link;entryX=0.5;entryY=1;entryDx=0;entryDy=0;" edge="1" parent="WIyWlLk6GJQsqaUBKTNV-1" source="qGvon2mAorv6Pj_mQ5Kc-8" target="qGvon2mAorv6Pj_mQ5Kc-0">
          <mxGeometry relative="1" as="geometry">
            <mxPoint x="219.47368421052624" y="440" as="targetPoint" />
          </mxGeometry>
        </mxCell>
        <mxCell id="qGvon2mAorv6Pj_mQ5Kc-8" value="username" style="ellipse;whiteSpace=wrap;html=1;" vertex="1" parent="WIyWlLk6GJQsqaUBKTNV-1">
          <mxGeometry x="130" y="350" width="90" height="50" as="geometry" />
        </mxCell>
        <mxCell id="qGvon2mAorv6Pj_mQ5Kc-9" value="" style="rounded=0;orthogonalLoop=1;jettySize=auto;html=1;shape=link;entryX=0.175;entryY=-0.017;entryDx=0;entryDy=0;entryPerimeter=0;" edge="1" parent="WIyWlLk6GJQsqaUBKTNV-1" source="qGvon2mAorv6Pj_mQ5Kc-10" target="qGvon2mAorv6Pj_mQ5Kc-1">
          <mxGeometry relative="1" as="geometry">
            <mxPoint x="149.47368421052624" y="230" as="targetPoint" />
          </mxGeometry>
        </mxCell>
        <mxCell id="qGvon2mAorv6Pj_mQ5Kc-10" value="&lt;u&gt;UserID&lt;/u&gt;" style="ellipse;whiteSpace=wrap;html=1;" vertex="1" parent="WIyWlLk6GJQsqaUBKTNV-1">
          <mxGeometry x="290" y="90" width="90" height="50" as="geometry" />
        </mxCell>
        <mxCell id="qGvon2mAorv6Pj_mQ5Kc-11" value="" style="rounded=0;orthogonalLoop=1;jettySize=auto;html=1;shape=link;" edge="1" parent="WIyWlLk6GJQsqaUBKTNV-1" source="qGvon2mAorv6Pj_mQ5Kc-12">
          <mxGeometry relative="1" as="geometry">
            <mxPoint x="413" y="200" as="targetPoint" />
          </mxGeometry>
        </mxCell>
        <mxCell id="qGvon2mAorv6Pj_mQ5Kc-12" value="&lt;u&gt;ListID&lt;/u&gt;" style="ellipse;whiteSpace=wrap;html=1;" vertex="1" parent="WIyWlLk6GJQsqaUBKTNV-1">
          <mxGeometry x="390" y="90" width="90" height="50" as="geometry" />
        </mxCell>
        <mxCell id="qGvon2mAorv6Pj_mQ5Kc-13" value="" style="rounded=0;orthogonalLoop=1;jettySize=auto;html=1;shape=link;entryX=0.25;entryY=1;entryDx=0;entryDy=0;" edge="1" parent="WIyWlLk6GJQsqaUBKTNV-1" source="qGvon2mAorv6Pj_mQ5Kc-14" target="qGvon2mAorv6Pj_mQ5Kc-1">
          <mxGeometry relative="1" as="geometry">
            <mxPoint x="399.47368421052624" y="440" as="targetPoint" />
          </mxGeometry>
        </mxCell>
        <mxCell id="qGvon2mAorv6Pj_mQ5Kc-14" value="registration Date" style="ellipse;whiteSpace=wrap;html=1;" vertex="1" parent="WIyWlLk6GJQsqaUBKTNV-1">
          <mxGeometry x="310" y="350" width="90" height="50" as="geometry" />
        </mxCell>
        <mxCell id="qGvon2mAorv6Pj_mQ5Kc-16" style="edgeStyle=none;shape=link;rounded=0;orthogonalLoop=1;jettySize=auto;html=1;entryX=0.5;entryY=1;entryDx=0;entryDy=0;" edge="1" parent="WIyWlLk6GJQsqaUBKTNV-1" source="qGvon2mAorv6Pj_mQ5Kc-15" target="qGvon2mAorv6Pj_mQ5Kc-1">
          <mxGeometry relative="1" as="geometry" />
        </mxCell>
        <mxCell id="qGvon2mAorv6Pj_mQ5Kc-15" value="&lt;u&gt;NoteID&lt;/u&gt;" style="ellipse;whiteSpace=wrap;html=1;" vertex="1" parent="WIyWlLk6GJQsqaUBKTNV-1">
          <mxGeometry x="414" y="350" width="90" height="50" as="geometry" />
        </mxCell>
        <mxCell id="qGvon2mAorv6Pj_mQ5Kc-18" style="edgeStyle=none;shape=link;rounded=0;orthogonalLoop=1;jettySize=auto;html=1;entryX=0.5;entryY=0;entryDx=0;entryDy=0;" edge="1" parent="WIyWlLk6GJQsqaUBKTNV-1" source="qGvon2mAorv6Pj_mQ5Kc-17" target="qGvon2mAorv6Pj_mQ5Kc-2">
          <mxGeometry relative="1" as="geometry" />
        </mxCell>
        <mxCell id="qGvon2mAorv6Pj_mQ5Kc-17" value="&lt;u&gt;NoteID&lt;/u&gt;" style="ellipse;whiteSpace=wrap;html=1;" vertex="1" parent="WIyWlLk6GJQsqaUBKTNV-1">
          <mxGeometry x="670" y="90" width="90" height="50" as="geometry" />
        </mxCell>
        <mxCell id="qGvon2mAorv6Pj_mQ5Kc-20" style="edgeStyle=none;shape=link;rounded=0;orthogonalLoop=1;jettySize=auto;html=1;entryX=0.25;entryY=1;entryDx=0;entryDy=0;" edge="1" parent="WIyWlLk6GJQsqaUBKTNV-1" source="qGvon2mAorv6Pj_mQ5Kc-19" target="qGvon2mAorv6Pj_mQ5Kc-2">
          <mxGeometry relative="1" as="geometry" />
        </mxCell>
        <mxCell id="qGvon2mAorv6Pj_mQ5Kc-19" value="registration Date" style="ellipse;whiteSpace=wrap;html=1;" vertex="1" parent="WIyWlLk6GJQsqaUBKTNV-1">
          <mxGeometry x="580" y="350" width="90" height="50" as="geometry" />
        </mxCell>
        <mxCell id="qGvon2mAorv6Pj_mQ5Kc-22" style="edgeStyle=none;shape=link;rounded=0;orthogonalLoop=1;jettySize=auto;html=1;entryX=0.5;entryY=1;entryDx=0;entryDy=0;" edge="1" parent="WIyWlLk6GJQsqaUBKTNV-1" source="qGvon2mAorv6Pj_mQ5Kc-21" target="qGvon2mAorv6Pj_mQ5Kc-2">
          <mxGeometry relative="1" as="geometry" />
        </mxCell>
        <mxCell id="qGvon2mAorv6Pj_mQ5Kc-21" value="title" style="ellipse;whiteSpace=wrap;html=1;" vertex="1" parent="WIyWlLk6GJQsqaUBKTNV-1">
          <mxGeometry x="680" y="360" width="90" height="50" as="geometry" />
        </mxCell>
        <mxCell id="qGvon2mAorv6Pj_mQ5Kc-24" style="edgeStyle=none;shape=link;rounded=0;orthogonalLoop=1;jettySize=auto;html=1;entryX=1;entryY=1;entryDx=0;entryDy=0;" edge="1" parent="WIyWlLk6GJQsqaUBKTNV-1" source="qGvon2mAorv6Pj_mQ5Kc-23" target="qGvon2mAorv6Pj_mQ5Kc-2">
          <mxGeometry relative="1" as="geometry" />
        </mxCell>
        <mxCell id="qGvon2mAorv6Pj_mQ5Kc-23" value="text" style="ellipse;whiteSpace=wrap;html=1;" vertex="1" parent="WIyWlLk6GJQsqaUBKTNV-1">
          <mxGeometry x="730" y="310" width="90" height="50" as="geometry" />
        </mxCell>
        <mxCell id="qGvon2mAorv6Pj_mQ5Kc-26" style="edgeStyle=none;shape=link;rounded=0;orthogonalLoop=1;jettySize=auto;html=1;entryX=1;entryY=0.25;entryDx=0;entryDy=0;" edge="1" parent="WIyWlLk6GJQsqaUBKTNV-1" source="qGvon2mAorv6Pj_mQ5Kc-25" target="qGvon2mAorv6Pj_mQ5Kc-2">
          <mxGeometry relative="1" as="geometry" />
        </mxCell>
        <mxCell id="qGvon2mAorv6Pj_mQ5Kc-25" value="expiration Date" style="ellipse;whiteSpace=wrap;html=1;" vertex="1" parent="WIyWlLk6GJQsqaUBKTNV-1">
          <mxGeometry x="737" y="140" width="90" height="50" as="geometry" />
        </mxCell>
        <mxCell id="qGvon2mAorv6Pj_mQ5Kc-28" style="edgeStyle=none;shape=link;rounded=0;orthogonalLoop=1;jettySize=auto;html=1;entryX=1;entryY=0.625;entryDx=0;entryDy=0;entryPerimeter=0;" edge="1" parent="WIyWlLk6GJQsqaUBKTNV-1" source="qGvon2mAorv6Pj_mQ5Kc-34" target="qGvon2mAorv6Pj_mQ5Kc-0">
          <mxGeometry relative="1" as="geometry" />
        </mxCell>
        <mxCell id="qGvon2mAorv6Pj_mQ5Kc-29" value="" style="edgeStyle=none;shape=link;rounded=0;orthogonalLoop=1;jettySize=auto;html=1;" edge="1" parent="WIyWlLk6GJQsqaUBKTNV-1" source="qGvon2mAorv6Pj_mQ5Kc-36" target="qGvon2mAorv6Pj_mQ5Kc-1">
          <mxGeometry relative="1" as="geometry" />
        </mxCell>
        <mxCell id="qGvon2mAorv6Pj_mQ5Kc-27" value="1" style="rhombus;whiteSpace=wrap;html=1;" vertex="1" parent="WIyWlLk6GJQsqaUBKTNV-1">
          <mxGeometry x="240" y="200" width="60" height="55" as="geometry" />
        </mxCell>
        <mxCell id="qGvon2mAorv6Pj_mQ5Kc-32" value="" style="edgeStyle=none;shape=link;rounded=0;orthogonalLoop=1;jettySize=auto;html=1;" edge="1" parent="WIyWlLk6GJQsqaUBKTNV-1" source="qGvon2mAorv6Pj_mQ5Kc-40" target="qGvon2mAorv6Pj_mQ5Kc-1">
          <mxGeometry relative="1" as="geometry" />
        </mxCell>
        <mxCell id="qGvon2mAorv6Pj_mQ5Kc-33" value="" style="edgeStyle=none;shape=link;rounded=0;orthogonalLoop=1;jettySize=auto;html=1;" edge="1" parent="WIyWlLk6GJQsqaUBKTNV-1" source="qGvon2mAorv6Pj_mQ5Kc-38" target="qGvon2mAorv6Pj_mQ5Kc-2">
          <mxGeometry relative="1" as="geometry" />
        </mxCell>
        <mxCell id="qGvon2mAorv6Pj_mQ5Kc-31" value="2" style="rhombus;whiteSpace=wrap;html=1;" vertex="1" parent="WIyWlLk6GJQsqaUBKTNV-1">
          <mxGeometry x="520" y="205" width="60" height="55" as="geometry" />
        </mxCell>
        <mxCell id="qGvon2mAorv6Pj_mQ5Kc-34" value="1" style="text;html=1;align=center;verticalAlign=middle;resizable=0;points=[];autosize=1;fillColor=#ffe6cc;strokeColor=#d79b00;" vertex="1" parent="WIyWlLk6GJQsqaUBKTNV-1">
          <mxGeometry x="210" y="210" width="20" height="20" as="geometry" />
        </mxCell>
        <mxCell id="qGvon2mAorv6Pj_mQ5Kc-35" style="edgeStyle=none;shape=link;rounded=0;orthogonalLoop=1;jettySize=auto;html=1;entryX=1;entryY=0.625;entryDx=0;entryDy=0;entryPerimeter=0;" edge="1" parent="WIyWlLk6GJQsqaUBKTNV-1" source="qGvon2mAorv6Pj_mQ5Kc-27" target="qGvon2mAorv6Pj_mQ5Kc-34">
          <mxGeometry relative="1" as="geometry">
            <mxPoint x="244.04494382022472" y="231.20786516853934" as="sourcePoint" />
            <mxPoint x="200" y="237.5" as="targetPoint" />
          </mxGeometry>
        </mxCell>
        <mxCell id="qGvon2mAorv6Pj_mQ5Kc-36" value="n" style="text;html=1;align=center;verticalAlign=middle;resizable=0;points=[];autosize=1;fillColor=#ffe6cc;strokeColor=#d79b00;" vertex="1" parent="WIyWlLk6GJQsqaUBKTNV-1">
          <mxGeometry x="310" y="217.5" width="20" height="20" as="geometry" />
        </mxCell>
        <mxCell id="qGvon2mAorv6Pj_mQ5Kc-37" value="" style="edgeStyle=none;shape=link;rounded=0;orthogonalLoop=1;jettySize=auto;html=1;" edge="1" parent="WIyWlLk6GJQsqaUBKTNV-1" source="qGvon2mAorv6Pj_mQ5Kc-27" target="qGvon2mAorv6Pj_mQ5Kc-36">
          <mxGeometry relative="1" as="geometry">
            <mxPoint x="299.3835616438357" y="228.06506849315065" as="sourcePoint" />
            <mxPoint x="340" y="228.8461538461538" as="targetPoint" />
          </mxGeometry>
        </mxCell>
        <mxCell id="qGvon2mAorv6Pj_mQ5Kc-38" value="n" style="text;html=1;align=center;verticalAlign=middle;resizable=0;points=[];autosize=1;fillColor=#ffe6cc;strokeColor=#d79b00;" vertex="1" parent="WIyWlLk6GJQsqaUBKTNV-1">
          <mxGeometry x="615" y="222.5" width="20" height="20" as="geometry" />
        </mxCell>
        <mxCell id="qGvon2mAorv6Pj_mQ5Kc-39" value="" style="edgeStyle=none;shape=link;rounded=0;orthogonalLoop=1;jettySize=auto;html=1;" edge="1" parent="WIyWlLk6GJQsqaUBKTNV-1" source="qGvon2mAorv6Pj_mQ5Kc-31" target="qGvon2mAorv6Pj_mQ5Kc-38">
          <mxGeometry relative="1" as="geometry">
            <mxPoint x="579.4642857142858" y="232.00892857142856" as="sourcePoint" />
            <mxPoint x="640" y="231" as="targetPoint" />
          </mxGeometry>
        </mxCell>
        <mxCell id="qGvon2mAorv6Pj_mQ5Kc-40" value="1" style="text;html=1;align=center;verticalAlign=middle;resizable=0;points=[];autosize=1;fillColor=#ffe6cc;strokeColor=#d79b00;" vertex="1" parent="WIyWlLk6GJQsqaUBKTNV-1">
          <mxGeometry x="470" y="222.5" width="20" height="20" as="geometry" />
        </mxCell>
        <mxCell id="qGvon2mAorv6Pj_mQ5Kc-41" value="" style="edgeStyle=none;shape=link;rounded=0;orthogonalLoop=1;jettySize=auto;html=1;" edge="1" parent="WIyWlLk6GJQsqaUBKTNV-1" source="qGvon2mAorv6Pj_mQ5Kc-31" target="qGvon2mAorv6Pj_mQ5Kc-40">
          <mxGeometry relative="1" as="geometry">
            <mxPoint x="520.5357142857142" y="232.00892857142856" as="sourcePoint" />
            <mxPoint x="460" y="231" as="targetPoint" />
          </mxGeometry>
        </mxCell>
        <mxCell id="qGvon2mAorv6Pj_mQ5Kc-42" value="" style="shape=umlActor;verticalLabelPosition=bottom;labelBackgroundColor=#ffffff;verticalAlign=top;html=1;outlineConnect=0;" vertex="1" parent="WIyWlLk6GJQsqaUBKTNV-1">
          <mxGeometry x="165" y="202.5" width="20" height="50" as="geometry" />
        </mxCell>
      </root>
    </mxGraphModel>
  </diagram>
</mxfile>
